<svg width="37" height="3" viewBox="0 0 37 3" fill="none" xmlns="http://www.w3.org/2000/svg">
<path d="M0.850185 1.68266H0.410009L0.3015 2H0.0210152L0.536943 0.55663H0.743724L1.25965 2H0.964836L0.850185 1.68266ZM0.481665 1.45746H0.788765L0.682304 1.13807L0.63931 0.912866H0.629073L0.586079 1.14012L0.481665 1.45746ZM2.37023 1.22611C2.32792 1.21109 2.28971 1.20359 2.25558 1.20359C2.20781 1.20359 2.16755 1.21655 2.13479 1.24249C2.1034 1.26705 2.08224 1.29913 2.07132 1.33871V2H1.80517V0.976333H2.01195L2.04266 1.11146H2.05085C2.07405 1.06096 2.10545 1.02206 2.14503 0.994759C2.18461 0.967461 2.23102 0.953813 2.28425 0.953813C2.31973 0.953813 2.36 0.961319 2.40504 0.976333L2.37023 1.22611ZM3.34187 1.91196C3.30092 1.94472 3.24496 1.9727 3.17399 1.99591C3.10438 2.01774 3.02999 2.02866 2.95083 2.02866C2.78568 2.02866 2.66489 1.98089 2.58845 1.88535C2.51202 1.78844 2.4738 1.65605 2.4738 1.48817C2.4738 1.308 2.51679 1.17288 2.60278 1.08279C2.68877 0.992712 2.80956 0.947671 2.96516 0.947671C3.01703 0.947671 3.06753 0.954495 3.11666 0.968144C3.1658 0.981793 3.20948 1.00431 3.24769 1.03571C3.28591 1.0671 3.31662 1.10941 3.33982 1.16264C3.36303 1.21587 3.37463 1.28207 3.37463 1.36123C3.37463 1.38989 3.37258 1.4206 3.36849 1.45336C3.36576 1.48612 3.36098 1.52024 3.35415 1.55573H2.73995C2.74405 1.64172 2.76589 1.70655 2.80547 1.75023C2.84642 1.7939 2.91193 1.81574 3.00201 1.81574C3.05797 1.81574 3.10779 1.80755 3.15147 1.79117C3.19651 1.77343 3.23063 1.75568 3.25383 1.73794L3.34187 1.91196ZM2.96107 1.16059C2.89146 1.16059 2.83959 1.18175 2.80547 1.22406C2.77271 1.26501 2.75292 1.32029 2.7461 1.38989H3.1269C3.13236 1.31619 3.12076 1.25955 3.0921 1.21997C3.0648 1.18038 3.02112 1.16059 2.96107 1.16059ZM3.55646 1.03571C3.61105 1.01114 3.67588 0.992029 3.75095 0.978381C3.82602 0.963367 3.9045 0.95586 3.9864 0.95586C4.05737 0.95586 4.11674 0.964732 4.16451 0.982475C4.21229 0.998854 4.24982 1.02274 4.27712 1.05413C4.30578 1.08552 4.32557 1.12306 4.33649 1.16674C4.34877 1.21041 4.35492 1.25955 4.35492 1.31414C4.35492 1.3742 4.35287 1.43494 4.34877 1.49636C4.34468 1.55641 4.34195 1.61578 4.34058 1.67447C4.34058 1.73316 4.34263 1.79049 4.34673 1.84645C4.35082 1.90105 4.36106 1.95291 4.37744 2.00205H4.16042L4.11743 1.86078H4.10719C4.07989 1.90309 4.04167 1.93994 3.99254 1.97134C3.94477 2.00136 3.88266 2.01638 3.80623 2.01638C3.75846 2.01638 3.71547 2.00955 3.67725 1.99591C3.63903 1.98089 3.60627 1.96042 3.57898 1.93449C3.55168 1.90719 3.53052 1.8758 3.51551 1.84031C3.5005 1.80346 3.49299 1.76251 3.49299 1.71747C3.49299 1.65468 3.50664 1.60213 3.53394 1.55982C3.5626 1.51615 3.60286 1.48134 3.65473 1.45541C3.70796 1.42811 3.77074 1.40969 3.84308 1.40013C3.91679 1.38921 3.99868 1.3858 4.08876 1.38989C4.09832 1.31346 4.09286 1.25887 4.07238 1.22611C4.05191 1.19199 4.00619 1.17492 3.93521 1.17492C3.88198 1.17492 3.82534 1.18038 3.76528 1.1913C3.70659 1.20222 3.65814 1.21655 3.61992 1.2343L3.55646 1.03571ZM3.89427 1.79731C3.9475 1.79731 3.98981 1.78571 4.0212 1.76251C4.05259 1.73794 4.0758 1.71201 4.09081 1.68471V1.55163C4.0485 1.54754 4.00755 1.54686 3.96797 1.54959C3.92975 1.55232 3.89563 1.55846 3.8656 1.56801C3.83558 1.57757 3.81169 1.59122 3.79395 1.60896C3.7762 1.6267 3.76733 1.64922 3.76733 1.67652C3.76733 1.71474 3.77825 1.74477 3.80009 1.7666C3.82329 1.78708 3.85468 1.79731 3.89427 1.79731ZM4.85261 1.65605C4.85261 1.70382 4.85875 1.73862 4.87104 1.76046C4.88332 1.7823 4.90311 1.79322 4.93041 1.79322C4.94679 1.79322 4.96248 1.79185 4.9775 1.78912C4.99388 1.78639 5.01367 1.78025 5.03687 1.7707L5.06553 1.97953C5.04369 1.99045 5.01026 2.00136 4.96521 2.01228C4.92017 2.0232 4.87377 2.02866 4.826 2.02866C4.7482 2.02866 4.68882 2.01092 4.64788 1.97543C4.60693 1.93858 4.58646 1.87852 4.58646 1.79527V0.566866H4.85261V1.65605ZM5.45441 1.65605C5.45441 1.70382 5.46056 1.73862 5.47284 1.76046C5.48512 1.7823 5.50492 1.79322 5.53221 1.79322C5.54859 1.79322 5.56429 1.79185 5.5793 1.78912C5.59568 1.78639 5.61547 1.78025 5.63867 1.7707L5.66734 1.97953C5.6455 1.99045 5.61206 2.00136 5.56702 2.01228C5.52198 2.0232 5.47557 2.02866 5.4278 2.02866C5.35 2.02866 5.29063 2.01092 5.24968 1.97543C5.20873 1.93858 5.18826 1.87852 5.18826 1.79527V0.566866H5.45441V1.65605ZM6.15449 1.55163L6.19134 1.71133H6.20363L6.23024 1.54959L6.38584 0.976333H6.66018L6.34899 1.89968C6.32305 1.97611 6.2978 2.04572 6.27324 2.10851C6.25003 2.17266 6.2241 2.22794 6.19544 2.27434C6.16677 2.32075 6.1347 2.35624 6.09921 2.3808C6.06509 2.40674 6.02414 2.4197 5.97637 2.4197C5.9054 2.4197 5.84876 2.4081 5.80644 2.3849L5.85558 2.17198C5.87605 2.18017 5.89653 2.18426 5.917 2.18426C5.94839 2.18426 5.97842 2.17061 6.00708 2.14331C6.03711 2.11738 6.05963 2.06961 6.07464 2L5.64675 0.976333H5.96614L6.15449 1.55163ZM7.92817 1.93653C7.88722 1.96656 7.8374 1.98908 7.77871 2.00409C7.72139 2.02047 7.66202 2.02866 7.6006 2.02866C7.5187 2.02866 7.44909 2.0157 7.39177 1.98976C7.33581 1.96383 7.29008 1.92766 7.2546 1.88125C7.21911 1.83348 7.19318 1.77616 7.1768 1.70928C7.16178 1.6424 7.15428 1.5687 7.15428 1.48817C7.15428 1.31483 7.19318 1.18175 7.27097 1.08894C7.34877 0.994759 7.46206 0.947671 7.61083 0.947671C7.6859 0.947671 7.74596 0.953813 7.791 0.966097C7.8374 0.978381 7.87903 0.994077 7.91588 1.01319L7.85242 1.2302C7.82103 1.21519 7.78963 1.20359 7.75824 1.1954C7.72821 1.18721 7.69341 1.18311 7.65383 1.18311C7.58012 1.18311 7.52416 1.20768 7.48594 1.25682C7.44773 1.30459 7.42862 1.38171 7.42862 1.48817C7.42862 1.53184 7.4334 1.57211 7.44295 1.60896C7.45251 1.64581 7.46684 1.67789 7.48594 1.70518C7.50505 1.73248 7.52962 1.75432 7.55965 1.7707C7.59104 1.78571 7.62721 1.79322 7.66816 1.79322C7.7132 1.79322 7.75142 1.78776 7.78281 1.77684C7.8142 1.76456 7.84218 1.75023 7.86675 1.73385L7.92817 1.93653ZM8.006 1.48817C8.006 1.31483 8.04831 1.18175 8.13293 1.08894C8.21756 0.994759 8.3363 0.947671 8.48917 0.947671C8.57106 0.947671 8.64204 0.960637 8.70209 0.98657C8.76215 1.0125 8.81197 1.04935 8.85155 1.09713C8.89113 1.14353 8.92048 1.20018 8.93958 1.26705C8.96006 1.33393 8.97029 1.40764 8.97029 1.48817C8.97029 1.66151 8.92798 1.79527 8.84336 1.88944C8.7601 1.98226 8.64204 2.02866 8.48917 2.02866C8.40728 2.02866 8.3363 2.0157 8.27625 1.98976C8.21619 1.96383 8.16569 1.92766 8.12474 1.88125C8.08516 1.83348 8.05514 1.77616 8.03466 1.70928C8.01555 1.6424 8.006 1.5687 8.006 1.48817ZM8.28034 1.48817C8.28034 1.53321 8.28444 1.57484 8.29263 1.61305C8.30082 1.65127 8.3131 1.68471 8.32948 1.71337C8.34586 1.74204 8.36701 1.76456 8.39295 1.78094C8.42024 1.79595 8.45232 1.80346 8.48917 1.80346C8.55878 1.80346 8.61065 1.77821 8.64477 1.7277C8.67889 1.6772 8.69595 1.59736 8.69595 1.48817C8.69595 1.39399 8.68025 1.31824 8.64886 1.26091C8.61747 1.20222 8.56424 1.17288 8.48917 1.17288C8.42366 1.17288 8.37247 1.19745 8.33562 1.24658C8.29877 1.29572 8.28034 1.37625 8.28034 1.48817ZM9.10564 1.48817C9.10564 1.31483 9.14795 1.18175 9.23258 1.08894C9.3172 0.994759 9.43595 0.947671 9.58881 0.947671C9.67071 0.947671 9.74168 0.960637 9.80174 0.98657C9.86179 1.0125 9.91161 1.04935 9.95119 1.09713C9.99077 1.14353 10.0201 1.20018 10.0392 1.26705C10.0597 1.33393 10.0699 1.40764 10.0699 1.48817C10.0699 1.66151 10.0276 1.79527 9.943 1.88944C9.85974 1.98226 9.74168 2.02866 9.58881 2.02866C9.50692 2.02866 9.43595 2.0157 9.37589 1.98976C9.31584 1.96383 9.26533 1.92766 9.22439 1.88125C9.18481 1.83348 9.15478 1.77616 9.1343 1.70928C9.1152 1.6424 9.10564 1.5687 9.10564 1.48817ZM9.37998 1.48817C9.37998 1.53321 9.38408 1.57484 9.39227 1.61305C9.40046 1.65127 9.41274 1.68471 9.42912 1.71337C9.4455 1.74204 9.46666 1.76456 9.49259 1.78094C9.51989 1.79595 9.55196 1.80346 9.58881 1.80346C9.65842 1.80346 9.71029 1.77821 9.74441 1.7277C9.77853 1.6772 9.79559 1.59736 9.79559 1.48817C9.79559 1.39399 9.7799 1.31824 9.7485 1.26091C9.71711 1.20222 9.66388 1.17288 9.58881 1.17288C9.5233 1.17288 9.47211 1.19745 9.43526 1.24658C9.39841 1.29572 9.37998 1.37625 9.37998 1.48817ZM10.5922 1.5762H10.5206V2H10.2544V0.566866H10.5206V1.41242L10.582 1.38375L10.8154 0.976333H11.1082L10.8625 1.36533L10.7581 1.44313L10.8707 1.52297L11.1471 2H10.842L10.5922 1.5762ZM11.7221 0.566866C11.7507 0.562772 11.7828 0.55936 11.8183 0.55663C11.8552 0.5539 11.8927 0.551853 11.9309 0.550488C11.9691 0.549123 12.006 0.54844 12.0415 0.54844C12.0783 0.547076 12.1111 0.546393 12.1397 0.546393C12.2667 0.546393 12.3752 0.564137 12.4653 0.599624C12.5554 0.635111 12.6284 0.684929 12.6843 0.749079C12.7403 0.813229 12.7812 0.889663 12.8072 0.978381C12.8331 1.0671 12.8461 1.16469 12.8461 1.27115C12.8461 1.36806 12.8338 1.46155 12.8092 1.55163C12.7847 1.64172 12.7437 1.72156 12.6864 1.79117C12.6291 1.86078 12.5533 1.91674 12.4591 1.95905C12.3663 2.00136 12.251 2.02252 12.1131 2.02252C12.0913 2.02252 12.0619 2.02184 12.0251 2.02047C11.9896 2.01911 11.9521 2.01706 11.9125 2.01433C11.8743 2.01297 11.8374 2.01092 11.8019 2.00819C11.7664 2.00682 11.7398 2.00478 11.7221 2.00205V0.566866ZM12.1623 0.796168C12.1322 0.796168 12.1015 0.79685 12.0701 0.798215C12.0401 0.79958 12.0176 0.801627 12.0026 0.804357V1.76456C12.008 1.76592 12.0169 1.76729 12.0292 1.76865C12.0428 1.76865 12.0572 1.76933 12.0722 1.7707C12.0872 1.7707 12.1015 1.77138 12.1152 1.77275C12.1288 1.77275 12.1391 1.77275 12.1459 1.77275C12.225 1.77275 12.2906 1.7591 12.3424 1.7318C12.3957 1.70314 12.4373 1.6656 12.4673 1.6192C12.4987 1.57279 12.5205 1.51956 12.5328 1.4595C12.5451 1.39808 12.5513 1.3353 12.5513 1.27115C12.5513 1.21519 12.5458 1.15923 12.5349 1.10327C12.524 1.04594 12.5035 0.994759 12.4735 0.949718C12.4448 0.904677 12.4052 0.867825 12.3547 0.839162C12.3042 0.810499 12.2401 0.796168 12.1623 0.796168ZM13.064 0.976333H13.3302V2H13.064V0.976333ZM13.0251 0.687659C13.0251 0.648077 13.0395 0.614638 13.0681 0.58734C13.0982 0.558677 13.1391 0.544346 13.191 0.544346C13.2428 0.544346 13.2845 0.558677 13.3159 0.58734C13.3486 0.614638 13.365 0.648077 13.365 0.687659C13.365 0.727241 13.3486 0.760681 13.3159 0.787979C13.2845 0.813911 13.2428 0.826878 13.191 0.826878C13.1391 0.826878 13.0982 0.813911 13.0681 0.787979C13.0395 0.760681 13.0251 0.727241 13.0251 0.687659ZM14.0151 1.71747C14.0151 1.69017 14.0035 1.66833 13.9803 1.65195C13.9571 1.63557 13.9285 1.62056 13.8943 1.60691C13.8602 1.59326 13.8227 1.57961 13.7817 1.56597C13.7408 1.55095 13.7033 1.53116 13.6691 1.50659C13.635 1.48066 13.6063 1.44858 13.5831 1.41037C13.5599 1.37079 13.5483 1.32029 13.5483 1.25887C13.5483 1.15786 13.5784 1.08075 13.6384 1.02752C13.6985 0.974286 13.7851 0.947671 13.8984 0.947671C13.9762 0.947671 14.0465 0.95586 14.1093 0.972239C14.1721 0.988617 14.2212 1.00704 14.2567 1.02752L14.1973 1.21997C14.166 1.20768 14.1264 1.19472 14.0786 1.18107C14.0308 1.16742 13.9824 1.16059 13.9332 1.16059C13.8541 1.16059 13.8145 1.1913 13.8145 1.25272C13.8145 1.27729 13.8261 1.29708 13.8493 1.3121C13.8725 1.32711 13.9012 1.34144 13.9353 1.35509C13.9694 1.36737 14.0069 1.38102 14.0479 1.39604C14.0888 1.41105 14.1264 1.43084 14.1605 1.45541C14.1946 1.47861 14.2233 1.50932 14.2465 1.54754C14.2697 1.58576 14.2813 1.63489 14.2813 1.69495C14.2813 1.79868 14.2478 1.88057 14.181 1.94063C14.1155 1.99932 14.0165 2.02866 13.8841 2.02866C13.8118 2.02866 13.7435 2.01911 13.6794 2C13.6166 1.98226 13.5654 1.9611 13.5258 1.93653L13.5995 1.73794C13.6309 1.75568 13.6725 1.77343 13.7244 1.79117C13.7763 1.80755 13.8295 1.81574 13.8841 1.81574C13.9237 1.81574 13.9551 1.80823 13.9783 1.79322C14.0028 1.77821 14.0151 1.75296 14.0151 1.71747ZM15.1798 1.93653C15.1389 1.96656 15.089 1.98908 15.0304 2.00409C14.973 2.02047 14.9137 2.02866 14.8522 2.02866C14.7703 2.02866 14.7007 2.0157 14.6434 1.98976C14.5874 1.96383 14.5417 1.92766 14.5062 1.88125C14.4707 1.83348 14.4448 1.77616 14.4284 1.70928C14.4134 1.6424 14.4059 1.5687 14.4059 1.48817C14.4059 1.31483 14.4448 1.18175 14.5226 1.08894C14.6004 0.994759 14.7137 0.947671 14.8625 0.947671C14.9375 0.947671 14.9976 0.953813 15.0426 0.966097C15.089 0.978381 15.1307 0.994077 15.1675 1.01319L15.1041 1.2302C15.0727 1.21519 15.0413 1.20359 15.0099 1.1954C14.9799 1.18721 14.945 1.18311 14.9055 1.18311C14.8318 1.18311 14.7758 1.20768 14.7376 1.25682C14.6994 1.30459 14.6803 1.38171 14.6803 1.48817C14.6803 1.53184 14.685 1.57211 14.6946 1.60896C14.7041 1.64581 14.7185 1.67789 14.7376 1.70518C14.7567 1.73248 14.7813 1.75432 14.8113 1.7707C14.8427 1.78571 14.8789 1.79322 14.9198 1.79322C14.9648 1.79322 15.0031 1.78776 15.0344 1.77684C15.0658 1.76456 15.0938 1.75023 15.1184 1.73385L15.1798 1.93653ZM15.2576 1.48817C15.2576 1.31483 15.3 1.18175 15.3846 1.08894C15.4692 0.994759 15.5879 0.947671 15.7408 0.947671C15.8227 0.947671 15.8937 0.960637 15.9537 0.98657C16.0138 1.0125 16.0636 1.04935 16.1032 1.09713C16.1428 1.14353 16.1721 1.20018 16.1912 1.26705C16.2117 1.33393 16.2219 1.40764 16.2219 1.48817C16.2219 1.66151 16.1796 1.79527 16.095 1.88944C16.0117 1.98226 15.8937 2.02866 15.7408 2.02866C15.6589 2.02866 15.5879 2.0157 15.5279 1.98976C15.4678 1.96383 15.4173 1.92766 15.3764 1.88125C15.3368 1.83348 15.3068 1.77616 15.2863 1.70928C15.2672 1.6424 15.2576 1.5687 15.2576 1.48817ZM15.532 1.48817C15.532 1.53321 15.5361 1.57484 15.5443 1.61305C15.5525 1.65127 15.5647 1.68471 15.5811 1.71337C15.5975 1.74204 15.6187 1.76456 15.6446 1.78094C15.6719 1.79595 15.704 1.80346 15.7408 1.80346C15.8104 1.80346 15.8623 1.77821 15.8964 1.7277C15.9305 1.6772 15.9476 1.59736 15.9476 1.48817C15.9476 1.39399 15.9319 1.31824 15.9005 1.26091C15.8691 1.20222 15.8159 1.17288 15.7408 1.17288C15.6753 1.17288 15.6241 1.19745 15.5873 1.24658C15.5504 1.29572 15.532 1.37625 15.532 1.48817ZM16.9715 1.22611C16.9292 1.21109 16.891 1.20359 16.8568 1.20359C16.8091 1.20359 16.7688 1.21655 16.736 1.24249C16.7046 1.26705 16.6835 1.29913 16.6726 1.33871V2H16.4064V0.976333H16.6132L16.6439 1.11146H16.6521C16.6753 1.06096 16.7067 1.02206 16.7463 0.994759C16.7859 0.967461 16.8323 0.953813 16.8855 0.953813C16.921 0.953813 16.9612 0.961319 17.0063 0.976333L16.9715 1.22611ZM17.9943 1.63967C17.9943 1.69699 17.995 1.75432 17.9963 1.81165C17.9977 1.86897 18.0039 1.93244 18.0148 2.00205H17.8244L17.7875 1.86897H17.7793C17.752 1.91674 17.7124 1.95564 17.6606 1.98567C17.6101 2.01433 17.55 2.02866 17.4804 2.02866C17.3521 2.02866 17.2525 1.98635 17.1815 1.90173C17.1105 1.8171 17.075 1.68471 17.075 1.50455C17.075 1.32984 17.1146 1.19403 17.1938 1.09713C17.273 1.00022 17.389 0.951765 17.5418 0.951765C17.5842 0.951765 17.619 0.954495 17.6463 0.959955C17.6736 0.964049 17.7008 0.971556 17.7281 0.982475V0.566866H17.9943V1.63967ZM17.5418 1.80346C17.5937 1.80346 17.6347 1.79117 17.6647 1.7666C17.6947 1.74067 17.7159 1.70382 17.7281 1.65605V1.22201C17.709 1.207 17.6879 1.19608 17.6647 1.18926C17.6415 1.18107 17.6114 1.17697 17.5746 1.17697C17.4995 1.17697 17.4429 1.20222 17.4047 1.25272C17.3678 1.30322 17.3494 1.38989 17.3494 1.51273C17.3494 1.60009 17.3644 1.67038 17.3944 1.72361C17.4258 1.77684 17.475 1.80346 17.5418 1.80346ZM19.7161 0.900582C19.7161 0.936069 19.7113 0.971556 19.7018 1.00704C19.6936 1.04253 19.6792 1.07529 19.6588 1.10532C19.6383 1.13398 19.6117 1.15991 19.5789 1.18311C19.5462 1.20495 19.5066 1.22133 19.4602 1.23225V1.24453C19.5011 1.25136 19.54 1.26296 19.5769 1.27934C19.6137 1.29572 19.6458 1.31824 19.6731 1.3469C19.7004 1.37556 19.7216 1.41037 19.7366 1.45131C19.7529 1.49226 19.7611 1.54071 19.7611 1.59668C19.7611 1.67038 19.7454 1.73453 19.714 1.78912C19.6827 1.84236 19.6403 1.88603 19.5871 1.92015C19.5352 1.95428 19.4759 1.97953 19.409 1.99591C19.3421 2.01228 19.2732 2.02047 19.2022 2.02047C19.179 2.02047 19.149 2.02047 19.1121 2.02047C19.0766 2.02047 19.0377 2.01911 18.9954 2.01638C18.9545 2.01501 18.9122 2.01228 18.8685 2.00819C18.8262 2.00409 18.7873 1.99795 18.7518 1.98976V0.577103C18.7777 0.573009 18.8071 0.568914 18.8398 0.564819C18.874 0.560724 18.9101 0.557312 18.9483 0.554583C18.9866 0.551853 19.0255 0.549805 19.065 0.54844C19.106 0.547076 19.1463 0.546393 19.1858 0.546393C19.2527 0.546393 19.3175 0.551853 19.3803 0.562772C19.4445 0.572326 19.5011 0.59007 19.5503 0.616002C19.6008 0.641935 19.641 0.678105 19.6711 0.724511C19.7011 0.770917 19.7161 0.829608 19.7161 0.900582ZM19.2043 1.78912C19.2384 1.78912 19.2711 1.78503 19.3025 1.77684C19.3353 1.76865 19.364 1.75637 19.3885 1.73999C19.4131 1.72225 19.4329 1.70041 19.4479 1.67447C19.4629 1.64854 19.4704 1.61783 19.4704 1.58234C19.4704 1.5373 19.4615 1.50182 19.4438 1.47588C19.4261 1.44995 19.4028 1.43016 19.3742 1.41651C19.3455 1.4015 19.3134 1.39194 19.278 1.38785C19.2425 1.38375 19.207 1.38171 19.1715 1.38171H19.022V1.77684C19.0289 1.77957 19.0398 1.78162 19.0548 1.78298C19.0698 1.78435 19.0855 1.78571 19.1019 1.78708C19.1196 1.78708 19.1374 1.78776 19.1551 1.78912C19.1742 1.78912 19.1906 1.78912 19.2043 1.78912ZM19.1121 1.16878C19.1312 1.16878 19.1531 1.1681 19.1776 1.16674C19.2036 1.16537 19.2247 1.16332 19.2411 1.16059C19.293 1.14421 19.3373 1.11965 19.3742 1.08689C19.4124 1.05413 19.4315 1.01114 19.4315 0.957907C19.4315 0.92242 19.4247 0.893075 19.411 0.869872C19.3974 0.846669 19.379 0.828243 19.3558 0.814594C19.3339 0.800945 19.3087 0.791391 19.28 0.785931C19.2513 0.780472 19.2213 0.777742 19.1899 0.777742C19.1544 0.777742 19.1217 0.778424 19.0917 0.779789C19.0616 0.781154 19.0384 0.783201 19.022 0.785931V1.16878H19.1121ZM19.9061 1.48817C19.9061 1.31483 19.9484 1.18175 20.0331 1.08894C20.1177 0.994759 20.2364 0.947671 20.3893 0.947671C20.4712 0.947671 20.5422 0.960637 20.6022 0.98657C20.6623 1.0125 20.7121 1.04935 20.7517 1.09713C20.7913 1.14353 20.8206 1.20018 20.8397 1.26705C20.8602 1.33393 20.8704 1.40764 20.8704 1.48817C20.8704 1.66151 20.8281 1.79527 20.7435 1.88944C20.6602 1.98226 20.5422 2.02866 20.3893 2.02866C20.3074 2.02866 20.2364 2.0157 20.1764 1.98976C20.1163 1.96383 20.0658 1.92766 20.0249 1.88125C19.9853 1.83348 19.9553 1.77616 19.9348 1.70928C19.9157 1.6424 19.9061 1.5687 19.9061 1.48817ZM20.1805 1.48817C20.1805 1.53321 20.1846 1.57484 20.1928 1.61305C20.2009 1.65127 20.2132 1.68471 20.2296 1.71337C20.246 1.74204 20.2671 1.76456 20.2931 1.78094C20.3204 1.79595 20.3524 1.80346 20.3893 1.80346C20.4589 1.80346 20.5108 1.77821 20.5449 1.7277C20.579 1.6772 20.5961 1.59736 20.5961 1.48817C20.5961 1.39399 20.5804 1.31824 20.549 1.26091C20.5176 1.20222 20.4644 1.17288 20.3893 1.17288C20.3238 1.17288 20.2726 1.19745 20.2357 1.24658C20.1989 1.29572 20.1805 1.37625 20.1805 1.48817ZM20.9484 0.976333H21.0897V0.783884L21.3559 0.708132V0.976333H21.6056V1.20154H21.3559V1.59463C21.3559 1.6656 21.3627 1.71679 21.3763 1.74818C21.3913 1.77821 21.4186 1.79322 21.4582 1.79322C21.4855 1.79322 21.5087 1.79049 21.5278 1.78503C21.5483 1.77957 21.5708 1.77138 21.5954 1.76046L21.6425 1.9652C21.6056 1.98294 21.5626 1.99795 21.5135 2.01024C21.4644 2.02252 21.4146 2.02866 21.3641 2.02866C21.2699 2.02866 21.2003 2.00478 21.1552 1.95701C21.1115 1.90787 21.0897 1.82802 21.0897 1.71747V1.20154H20.9484V0.976333ZM22.1923 0.976333H22.3336V0.919008C22.3336 0.789343 22.3609 0.695849 22.4155 0.638523C22.4701 0.579833 22.5492 0.550488 22.653 0.550488C22.7622 0.550488 22.8529 0.563454 22.9253 0.589387L22.8741 0.80231C22.8427 0.791391 22.8147 0.784566 22.7901 0.781837C22.7669 0.777742 22.7424 0.775694 22.7164 0.775694C22.6891 0.775694 22.6673 0.779789 22.6509 0.787979C22.6359 0.796168 22.6243 0.809134 22.6161 0.826878C22.6093 0.843257 22.6045 0.864412 22.6018 0.890345C22.6004 0.914913 22.5997 0.943576 22.5997 0.976333H22.825V1.20154H22.5997V2H22.3336V1.20154H22.1923V0.976333ZM22.8852 1.48817C22.8852 1.31483 22.9275 1.18175 23.0121 1.08894C23.0967 0.994759 23.2155 0.947671 23.3683 0.947671C23.4502 0.947671 23.5212 0.960637 23.5812 0.98657C23.6413 1.0125 23.6911 1.04935 23.7307 1.09713C23.7703 1.14353 23.7996 1.20018 23.8187 1.26705C23.8392 1.33393 23.8495 1.40764 23.8495 1.48817C23.8495 1.66151 23.8071 1.79527 23.7225 1.88944C23.6393 1.98226 23.5212 2.02866 23.3683 2.02866C23.2864 2.02866 23.2155 2.0157 23.1554 1.98976C23.0953 1.96383 23.0448 1.92766 23.0039 1.88125C22.9643 1.83348 22.9343 1.77616 22.9138 1.70928C22.8947 1.6424 22.8852 1.5687 22.8852 1.48817ZM23.1595 1.48817C23.1595 1.53321 23.1636 1.57484 23.1718 1.61305C23.18 1.65127 23.1923 1.68471 23.2086 1.71337C23.225 1.74204 23.2462 1.76456 23.2721 1.78094C23.2994 1.79595 23.3315 1.80346 23.3683 1.80346C23.4379 1.80346 23.4898 1.77821 23.5239 1.7277C23.558 1.6772 23.5751 1.59736 23.5751 1.48817C23.5751 1.39399 23.5594 1.31824 23.528 1.26091C23.4966 1.20222 23.4434 1.17288 23.3683 1.17288C23.3028 1.17288 23.2516 1.19745 23.2148 1.24658C23.1779 1.29572 23.1595 1.37625 23.1595 1.48817ZM24.599 1.22611C24.5567 1.21109 24.5185 1.20359 24.4843 1.20359C24.4366 1.20359 24.3963 1.21655 24.3636 1.24249C24.3322 1.26705 24.311 1.29913 24.3001 1.33871V2H24.0339V0.976333H24.2407L24.2714 1.11146H24.2796C24.3028 1.06096 24.3342 1.02206 24.3738 0.994759C24.4134 0.967461 24.4598 0.953813 24.513 0.953813C24.5485 0.953813 24.5888 0.961319 24.6338 0.976333L24.599 1.22611ZM25.7554 1.25272H26.2897V1.89149C26.2324 1.93926 26.1635 1.97407 26.0829 1.99591C26.0038 2.01774 25.9253 2.02866 25.8475 2.02866C25.7561 2.02866 25.6708 2.01433 25.5916 1.98567C25.5138 1.95701 25.4462 1.91265 25.3889 1.85259C25.3316 1.79117 25.2865 1.71337 25.2538 1.6192C25.221 1.52502 25.2046 1.4131 25.2046 1.28343C25.2046 1.14831 25.2237 1.03366 25.262 0.939481C25.3015 0.843939 25.3527 0.766823 25.4155 0.708132C25.4797 0.648077 25.5513 0.605083 25.6305 0.579151C25.7097 0.551853 25.7902 0.538204 25.8721 0.538204C25.954 0.538204 26.0256 0.544346 26.087 0.55663C26.1498 0.568914 26.1996 0.58188 26.2365 0.595529L26.1792 0.830973C26.145 0.817324 26.1068 0.807087 26.0645 0.800263C26.0222 0.792073 25.9683 0.787979 25.9028 0.787979C25.8441 0.787979 25.7902 0.79685 25.741 0.814594C25.6919 0.832337 25.6489 0.861683 25.6121 0.902629C25.5766 0.942211 25.5486 0.993394 25.5281 1.05618C25.509 1.11896 25.4995 1.1954 25.4995 1.28548C25.4995 1.37147 25.509 1.44586 25.5281 1.50864C25.5472 1.57006 25.5738 1.62124 25.608 1.66219C25.6421 1.70177 25.6817 1.73112 25.7267 1.75023C25.7731 1.76933 25.8223 1.77889 25.8741 1.77889C25.9096 1.77889 25.9444 1.77479 25.9785 1.7666C26.0127 1.75705 26.0413 1.7434 26.0645 1.72566V1.45541L25.7554 1.42265V1.25272ZM26.7471 0.976333V1.55778C26.7471 1.64103 26.7566 1.70109 26.7757 1.73794C26.7962 1.77479 26.8351 1.79322 26.8924 1.79322C26.9429 1.79322 26.9845 1.77821 27.0173 1.74818C27.0514 1.71815 27.0767 1.6813 27.093 1.63762V0.976333H27.3592V1.68881C27.3592 1.74477 27.3619 1.80004 27.3674 1.85464C27.3729 1.90787 27.381 1.95632 27.392 2H27.1913L27.1442 1.8485H27.136C27.1047 1.90036 27.061 1.94336 27.005 1.97748C26.9491 2.0116 26.8829 2.02866 26.8064 2.02866C26.7546 2.02866 26.7082 2.02184 26.6672 2.00819C26.6263 1.99454 26.5921 1.97202 26.5648 1.94063C26.5375 1.90923 26.5164 1.86692 26.5014 1.81369C26.4877 1.76046 26.4809 1.69358 26.4809 1.61305V0.976333H26.7471ZM27.4986 0.976333H27.6399V0.919008C27.6399 0.789343 27.6672 0.695849 27.7218 0.638523C27.7764 0.579833 27.8555 0.550488 27.9592 0.550488C28.0684 0.550488 28.1592 0.563454 28.2315 0.589387L28.1804 0.80231C28.149 0.791391 28.121 0.784566 28.0964 0.781837C28.0732 0.777742 28.0486 0.775694 28.0227 0.775694C27.9954 0.775694 27.9736 0.779789 27.9572 0.787979C27.9422 0.796168 27.9306 0.809134 27.9224 0.826878C27.9156 0.843257 27.9108 0.864412 27.9081 0.890345C27.9067 0.914913 27.906 0.943576 27.906 0.976333H28.1312V1.20154H27.906V2H27.6399V1.20154H27.4986V0.976333ZM28.1564 0.976333H28.2977V0.919008C28.2977 0.789343 28.3249 0.695849 28.3795 0.638523C28.4341 0.579833 28.5133 0.550488 28.617 0.550488C28.7262 0.550488 28.817 0.563454 28.8893 0.589387L28.8381 0.80231C28.8068 0.791391 28.7788 0.784566 28.7542 0.781837C28.731 0.777742 28.7064 0.775694 28.6805 0.775694C28.6532 0.775694 28.6314 0.779789 28.615 0.787979C28.6 0.796168 28.5884 0.809134 28.5802 0.826878C28.5734 0.843257 28.5686 0.864412 28.5659 0.890345C28.5645 0.914913 28.5638 0.943576 28.5638 0.976333H28.789V1.20154H28.5638V2H28.2977V1.20154H28.1564V0.976333ZM28.8492 1.48817C28.8492 1.31483 28.8915 1.18175 28.9761 1.08894C29.0608 0.994759 29.1795 0.947671 29.3324 0.947671C29.4143 0.947671 29.4853 0.960637 29.5453 0.98657C29.6054 1.0125 29.6552 1.04935 29.6948 1.09713C29.7343 1.14353 29.7637 1.20018 29.7828 1.26705C29.8033 1.33393 29.8135 1.40764 29.8135 1.48817C29.8135 1.66151 29.7712 1.79527 29.6866 1.88944C29.6033 1.98226 29.4853 2.02866 29.3324 2.02866C29.2505 2.02866 29.1795 2.0157 29.1195 1.98976C29.0594 1.96383 29.0089 1.92766 28.968 1.88125C28.9284 1.83348 28.8984 1.77616 28.8779 1.70928C28.8588 1.6424 28.8492 1.5687 28.8492 1.48817ZM29.1236 1.48817C29.1236 1.53321 29.1277 1.57484 29.1358 1.61305C29.144 1.65127 29.1563 1.68471 29.1727 1.71337C29.1891 1.74204 29.2102 1.76456 29.2362 1.78094C29.2635 1.79595 29.2955 1.80346 29.3324 1.80346C29.402 1.80346 29.4539 1.77821 29.488 1.7277C29.5221 1.6772 29.5392 1.59736 29.5392 1.48817C29.5392 1.39399 29.5235 1.31824 29.4921 1.26091C29.4607 1.20222 29.4075 1.17288 29.3324 1.17288C29.2669 1.17288 29.2157 1.19745 29.1788 1.24658C29.142 1.29572 29.1236 1.37625 29.1236 1.48817ZM29.8071 0.681517C29.8071 0.641935 29.8201 0.60986 29.846 0.585292C29.8733 0.560724 29.9075 0.54844 29.9484 0.54844C29.9975 0.54844 30.0364 0.564819 30.0651 0.597576C30.0938 0.630334 30.1081 0.673328 30.1081 0.726558C30.1081 0.781154 30.0992 0.82756 30.0815 0.865777C30.0651 0.903994 30.0446 0.936069 30.0201 0.962002C29.9969 0.98657 29.9716 1.00636 29.9443 1.02137C29.9184 1.03502 29.8965 1.04526 29.8788 1.05208L29.8112 0.939481C29.8385 0.927197 29.8624 0.910819 29.8829 0.890345C29.9047 0.869872 29.917 0.843939 29.9197 0.812546C29.8924 0.813911 29.8665 0.803675 29.8419 0.781837C29.8187 0.758633 29.8071 0.725194 29.8071 0.681517ZM30.5757 1.71747C30.5757 1.69017 30.5641 1.66833 30.5409 1.65195C30.5177 1.63557 30.4891 1.62056 30.4549 1.60691C30.4208 1.59326 30.3833 1.57961 30.3423 1.56597C30.3014 1.55095 30.2639 1.53116 30.2297 1.50659C30.1956 1.48066 30.167 1.44858 30.1438 1.41037C30.1205 1.37079 30.1089 1.32029 30.1089 1.25887C30.1089 1.15786 30.139 1.08075 30.199 1.02752C30.2591 0.974286 30.3458 0.947671 30.459 0.947671C30.5368 0.947671 30.6071 0.95586 30.6699 0.972239C30.7327 0.988617 30.7818 1.00704 30.8173 1.02752L30.758 1.21997C30.7266 1.20768 30.687 1.19472 30.6392 1.18107C30.5914 1.16742 30.543 1.16059 30.4938 1.16059C30.4147 1.16059 30.3751 1.1913 30.3751 1.25272C30.3751 1.27729 30.3867 1.29708 30.4099 1.3121C30.4331 1.32711 30.4618 1.34144 30.4959 1.35509C30.53 1.36737 30.5676 1.38102 30.6085 1.39604C30.6494 1.41105 30.687 1.43084 30.7211 1.45541C30.7552 1.47861 30.7839 1.50932 30.8071 1.54754C30.8303 1.58576 30.8419 1.63489 30.8419 1.69495C30.8419 1.79868 30.8085 1.88057 30.7416 1.94063C30.6761 1.99932 30.5771 2.02866 30.4447 2.02866C30.3724 2.02866 30.3041 2.01911 30.24 2C30.1772 1.98226 30.126 1.9611 30.0864 1.93653L30.1601 1.73794C30.1915 1.75568 30.2332 1.77343 30.285 1.79117C30.3369 1.80755 30.3901 1.81574 30.4447 1.81574C30.4843 1.81574 30.5157 1.80823 30.5389 1.79322C30.5635 1.77821 30.5757 1.75296 30.5757 1.71747ZM32.1579 1.6151C32.1579 1.57142 32.1415 1.53594 32.1088 1.50864C32.0774 1.48134 32.0371 1.45677 31.988 1.43494C31.9402 1.41173 31.8877 1.38853 31.8304 1.36533C31.7744 1.34076 31.7218 1.31141 31.6727 1.27729C31.6249 1.2418 31.5847 1.19813 31.5519 1.14626C31.5205 1.0944 31.5048 1.0282 31.5048 0.947671C31.5048 0.878061 31.5164 0.818006 31.5396 0.767505C31.5628 0.715639 31.5956 0.672645 31.6379 0.638523C31.6816 0.604401 31.7328 0.57915 31.7915 0.562772C31.8501 0.546393 31.9157 0.538204 31.988 0.538204C32.0713 0.538204 32.1497 0.545711 32.2234 0.560725C32.2971 0.574373 32.3579 0.594847 32.4057 0.622144L32.3176 0.857588C32.2876 0.838479 32.2426 0.821418 32.1825 0.806405C32.1224 0.790026 32.0576 0.781837 31.988 0.781837C31.9225 0.781837 31.872 0.794803 31.8365 0.820736C31.8024 0.846669 31.7853 0.881473 31.7853 0.92515C31.7853 0.966097 31.801 1.00022 31.8324 1.02752C31.8652 1.05481 31.9054 1.08006 31.9532 1.10327C32.0023 1.12647 32.0549 1.15036 32.1108 1.17492C32.1682 1.19949 32.2207 1.22952 32.2685 1.26501C32.3176 1.29913 32.3579 1.34212 32.3893 1.39399C32.422 1.44449 32.4384 1.50796 32.4384 1.58439C32.4384 1.66083 32.4254 1.72702 32.3995 1.78298C32.3749 1.83758 32.3395 1.8833 32.2931 1.92015C32.248 1.95701 32.1927 1.9843 32.1272 2.00205C32.0631 2.01979 31.9921 2.02866 31.9143 2.02866C31.8119 2.02866 31.7218 2.01911 31.644 2C31.5662 1.98089 31.5089 1.96178 31.4721 1.94267L31.5622 1.70314C31.5772 1.71133 31.5963 1.7202 31.6195 1.72975C31.644 1.73931 31.6713 1.74818 31.7014 1.75637C31.7314 1.76456 31.7628 1.77138 31.7956 1.77684C31.8297 1.7823 31.8645 1.78503 31.9 1.78503C31.9832 1.78503 32.0467 1.77138 32.0904 1.74408C32.1354 1.71542 32.1579 1.67243 32.1579 1.6151ZM33.4381 1.91196C33.3971 1.94472 33.3412 1.9727 33.2702 1.99591C33.2006 2.01774 33.1262 2.02866 33.047 2.02866C32.8819 2.02866 32.7611 1.98089 32.6847 1.88535C32.6082 1.78844 32.57 1.65605 32.57 1.48817C32.57 1.308 32.613 1.17288 32.699 1.08279C32.785 0.992712 32.9058 0.947671 33.0614 0.947671C33.1132 0.947671 33.1637 0.954495 33.2129 0.968144C33.262 0.981793 33.3057 1.00431 33.3439 1.03571C33.3821 1.0671 33.4128 1.10941 33.436 1.16264C33.4592 1.21587 33.4708 1.28207 33.4708 1.36123C33.4708 1.38989 33.4688 1.4206 33.4647 1.45336C33.462 1.48612 33.4572 1.52024 33.4504 1.55573H32.8362C32.8403 1.64172 32.8621 1.70655 32.9017 1.75023C32.9426 1.7939 33.0081 1.81574 33.0982 1.81574C33.1542 1.81574 33.204 1.80755 33.2477 1.79117C33.2927 1.77343 33.3268 1.75568 33.35 1.73794L33.4381 1.91196ZM33.0573 1.16059C32.9877 1.16059 32.9358 1.18175 32.9017 1.22406C32.8689 1.26501 32.8491 1.32029 32.8423 1.38989H33.2231C33.2286 1.31619 33.217 1.25955 33.1883 1.21997C33.161 1.18038 33.1173 1.16059 33.0573 1.16059ZM34.2239 1.22611C34.1816 1.21109 34.1433 1.20359 34.1092 1.20359C34.0614 1.20359 34.0212 1.21655 33.9884 1.24249C33.957 1.26705 33.9359 1.29913 33.925 1.33871V2H33.6588V0.976333H33.8656L33.8963 1.11146H33.9045C33.9277 1.06096 33.9591 1.02206 33.9987 0.994759C34.0382 0.967461 34.0846 0.953813 34.1379 0.953813C34.1734 0.953813 34.2136 0.961319 34.2587 0.976333L34.2239 1.22611ZM34.7308 1.51273L34.7656 1.67038H34.7758L34.8045 1.50864L34.9785 0.976333H35.2651L34.8372 2.01024H34.6755L34.2312 0.976333H34.5404L34.7308 1.51273ZM36.1572 1.91196C36.1162 1.94472 36.0603 1.9727 35.9893 1.99591C35.9197 2.01774 35.8453 2.02866 35.7661 2.02866C35.601 2.02866 35.4802 1.98089 35.4038 1.88535C35.3273 1.78844 35.2891 1.65605 35.2891 1.48817C35.2891 1.308 35.3321 1.17288 35.4181 1.08279C35.5041 0.992712 35.6249 0.947671 35.7805 0.947671C35.8323 0.947671 35.8828 0.954495 35.932 0.968144C35.9811 0.981793 36.0248 1.00431 36.063 1.03571C36.1012 1.0671 36.1319 1.10941 36.1551 1.16264C36.1783 1.21587 36.1899 1.28207 36.1899 1.36123C36.1899 1.38989 36.1879 1.4206 36.1838 1.45336C36.1811 1.48612 36.1763 1.52024 36.1695 1.55573H35.5553C35.5594 1.64172 35.5812 1.70655 35.6208 1.75023C35.6617 1.7939 35.7272 1.81574 35.8173 1.81574C35.8733 1.81574 35.9231 1.80755 35.9668 1.79117C36.0118 1.77343 36.046 1.75568 36.0692 1.73794L36.1572 1.91196ZM35.7764 1.16059C35.7068 1.16059 35.6549 1.18175 35.6208 1.22406C35.588 1.26501 35.5682 1.32029 35.5614 1.38989H35.9422C35.9477 1.31619 35.9361 1.25955 35.9074 1.21997C35.8801 1.18038 35.8364 1.16059 35.7764 1.16059ZM36.943 1.22611C36.9007 1.21109 36.8625 1.20359 36.8283 1.20359C36.7806 1.20359 36.7403 1.21655 36.7075 1.24249C36.6761 1.26705 36.655 1.29913 36.6441 1.33871V2H36.3779V0.976333H36.5847L36.6154 1.11146H36.6236C36.6468 1.06096 36.6782 1.02206 36.7178 0.994759C36.7574 0.967461 36.8038 0.953813 36.857 0.953813C36.8925 0.953813 36.9327 0.961319 36.9778 0.976333L36.943 1.22611Z" fill="#5865F2"/>
</svg>
